<svg width="19" height="19" viewBox="0 0 19 19" fill="none" xmlns="http://www.w3.org/2000/svg">
<path fill-rule="evenodd" clip-rule="evenodd" d="M0.0966187 9.56878C0.0966187 4.60193 4.18026 0.570862 9.21189 0.570862C14.2435 0.570862 18.3272 4.60193 18.3272 9.56878V10.8555C18.3272 12.6281 16.9325 14.0677 15.1368 14.0677C14.0521 14.0677 13.0312 13.5459 12.4387 12.7451C11.6183 13.5639 10.4698 14.0677 9.21189 14.0677C6.69607 14.0677 4.65425 12.0522 4.65425 9.56878C4.65425 7.08536 6.69607 5.06982 9.21189 5.06982C11.7277 5.06982 13.7695 7.08536 13.7695 9.56878V10.8555C13.7695 11.5663 14.4167 12.2682 15.1368 12.2682C15.8569 12.2682 16.5041 11.5663 16.5041 10.8555V9.56878C16.5041 5.66369 13.1679 2.37045 9.21189 2.37045C5.25586 2.37045 1.91967 5.66369 1.91967 9.56878C1.91967 13.4739 5.25586 16.7671 9.21189 16.7671H13.7695V18.5667H9.21189C4.18026 18.5667 0.0966187 14.5356 0.0966187 9.56878ZM6.4773 9.56878C6.4773 11.0624 7.69875 12.2682 9.21188 12.2682C10.725 12.2682 11.9465 11.0624 11.9465 9.56878C11.9465 8.07513 10.725 6.86941 9.21188 6.86941C7.69875 6.86941 6.4773 8.07513 6.4773 9.56878Z" fill="#FCFCFC"/>
</svg>
