<svg width="23" height="15" viewBox="0 0 23 15" fill="none" xmlns="http://www.w3.org/2000/svg">
<path fill-rule="evenodd" clip-rule="evenodd" d="M18.2826 5.47936C17.6738 2.43051 14.9612 0.141663 11.7025 0.141663C9.1152 0.141663 6.86812 1.59097 5.74906 3.71191C3.05436 3.9947 0.959473 6.2482 0.959473 8.97891C0.959473 11.904 3.36769 14.2813 6.33097 14.2813H17.9692C20.4401 14.2813 22.4455 12.3017 22.4455 9.86263C22.4455 7.5296 20.6102 5.63843 18.2826 5.47936ZM17.9693 12.5138H6.33101C4.35251 12.5138 2.75002 10.9319 2.75002 8.97891C2.75002 7.16728 4.11975 5.65611 5.9371 5.47053L6.89502 5.37332L7.34265 4.53378C8.19313 2.91656 9.8583 1.90912 11.7025 1.90912C14.0481 1.90912 16.0713 3.55285 16.5279 5.82402L16.7965 7.1496L18.1662 7.24681C19.5628 7.33519 20.655 8.49287 20.655 9.86264C20.655 11.3208 19.4464 12.5138 17.9693 12.5138ZM10.4044 5.44403H13.0006V8.0952H15.2835L11.7025 11.6301L8.12153 8.0952H10.4044V5.44403Z" fill="#FCFCFC"/>
</svg>
