<svg width="25" viewBox="0 0 25 25" fill="white" xmlns="http://www.w3.org/2000/svg">
<path d="M2 12.5C2 11.1193 3.11929 10 4.5 10C5.88071 10 7 11.1193 7 12.5C7 13.8807 5.88071 15 4.5 15C3.11929 15 2 13.8807 2 12.5Z" fill="white"/>
<path d="M10 12.5C10 11.1193 11.1193 10 12.5 10C13.8807 10 15 11.1193 15 12.5C15 13.8807 13.8807 15 12.5 15C11.1193 15 10 13.8807 10 12.5Z" fill="white"/>
<path d="M18 12.5C18 11.1193 19.1193 10 20.5 10C21.8807 10 23 11.1193 23 12.5C23 13.8807 21.8807 15 20.5 15C19.1193 15 18 13.8807 18 12.5Z" fill="white"/>
</svg>
