<svg width="25" height="25" viewBox="0 0 25 25" fill="none" xmlns="http://www.w3.org/2000/svg">
<path fill-rule="evenodd" clip-rule="evenodd" d="M23 15.712C22.9825 15.8897 22.9613 16.067 22.9483 16.245C22.7928 18.3841 22.0628 20.2617 20.4343 21.7165C19.1269 22.8844 17.5994 23.6072 15.8696 23.8844C15.4796 23.9468 15.0808 23.9782 14.6859 23.9798C12.7842 23.9871 10.8807 24.0288 8.98105 23.9654C6.05515 23.8677 3.76832 22.6016 2.25619 20.039C1.62878 18.9757 1.21911 17.8331 1.11779 16.6006C1.04384 15.7012 1.03736 14.7962 1 13.8741C2.0638 13.8741 3.08343 13.8741 4.12999 13.8741C4.12999 13.9541 4.12865 14.0329 4.13019 14.1115C4.14322 14.7795 4.11302 15.4518 4.17819 16.1146C4.40532 18.4264 5.69158 20.1859 8.16809 20.7423C8.68082 20.8574 9.21946 20.8923 9.74693 20.8991C11.2978 20.919 12.8492 20.916 14.4002 20.9023C15.2799 20.8946 16.1391 20.7443 16.9438 20.3685C18.4679 19.6564 19.3661 18.4417 19.7306 16.8174C19.924 15.9554 19.883 15.0751 19.8858 14.1995C19.8862 14.0932 19.8859 13.9871 19.8859 13.8462C20.9412 13.8462 21.9706 13.8462 23 13.8462C23 14.4681 23 15.0901 23 15.712Z" fill="white"/>
<path fill-rule="evenodd" clip-rule="evenodd" d="M15.172 6.73846C15.4391 6.81739 15.676 6.86756 15.8979 6.95608C17.1929 7.47255 17.9174 8.47371 18.2024 9.82419C18.2697 10.1429 18.2845 10.4777 18.2863 10.8054C18.2945 12.3684 18.3081 13.9317 18.2844 15.4945C18.2641 16.8364 17.7289 17.9422 16.6622 18.7525C16.1305 19.1564 15.5126 19.3415 14.8524 19.4025C14.1365 19.4686 13.4347 19.4323 12.7648 19.1474C12.5419 19.0526 12.3393 18.9096 12.1218 18.8003C12.0604 18.7694 11.9554 18.7446 11.9103 18.7761C11.3669 19.1555 10.7648 19.3413 10.1122 19.403C9.30988 19.479 8.5291 19.4088 7.79823 19.0542C6.66151 18.5026 6.05713 17.5279 5.7898 16.3157C5.72556 16.0244 5.70872 15.7174 5.70729 15.4174C5.69956 13.82 5.70888 12.2225 5.70233 10.625C5.69411 8.61458 6.94849 7.23142 8.65285 6.79003C8.69675 6.77867 8.74325 6.77772 8.81412 6.76859C8.81412 6.87194 8.81412 6.95971 8.81412 7.04744C8.81412 9.81551 8.81327 12.5835 8.8166 15.3516C8.81677 15.5005 8.8328 15.6556 8.8758 15.797C8.9869 16.1625 9.38909 16.3501 9.82643 16.2581C10.265 16.1658 10.4583 15.9149 10.4598 15.4174C10.4628 14.4603 10.4607 13.5032 10.4608 12.5461C10.4608 12.4639 10.4608 12.3816 10.4608 12.2822C11.497 12.2822 12.522 12.2822 13.5713 12.2822C13.5713 12.3584 13.5713 12.432 13.5713 12.5055C13.5713 13.4901 13.5686 14.4748 13.5731 15.4594C13.5743 15.7204 13.5723 16.0022 13.8427 16.1461C14.1726 16.3217 14.5221 16.3373 14.8524 16.1488C15.1111 16.0011 15.167 15.7313 15.1701 15.4548C15.1759 14.9384 15.1719 14.4219 15.1719 13.9055C15.172 11.6195 15.172 9.33342 15.172 7.04736C15.172 6.95984 15.172 6.87231 15.172 6.73846Z" fill="white"/>
<path fill-rule="evenodd" clip-rule="evenodd" d="M22.9999 12.3231C22.068 12.3198 21.136 12.3165 20.204 12.3133C20.1099 12.313 20.0157 12.3133 19.8964 12.3133C19.8909 12.225 19.8829 12.1463 19.8814 12.0676C19.8692 11.4043 19.8948 10.738 19.8403 10.0784C19.6461 7.72979 18.2103 5.88187 15.8781 5.33198C15.3522 5.208 14.802 5.1456 14.2617 5.13693C12.6882 5.11165 11.1138 5.1172 9.54007 5.13208C8.61845 5.14079 7.72006 5.29314 6.88467 5.72196C5.45296 6.45687 4.58875 7.63853 4.27038 9.21733C4.15804 9.77445 4.13785 10.3531 4.10554 10.9237C4.08004 11.3738 4.10043 11.8265 4.10043 12.2956C3.0672 12.2956 2.04589 12.2956 1.00074 12.2956C1.00074 12.1709 0.998876 12.0495 1.00106 11.9282C1.01428 11.1897 0.988173 10.4476 1.05097 9.71332C1.167 8.35642 1.58567 7.08852 2.27629 5.91533C3.46268 3.8999 5.1892 2.65247 7.45837 2.20186C8.02951 2.08844 8.61866 2.02394 9.20038 2.01766C11.0982 1.9971 12.9969 1.98905 14.8945 2.02394C16.4403 2.05239 17.8701 2.52911 19.182 3.35902C20.6247 4.27163 21.7266 5.48239 22.3532 7.1064C22.6537 7.88534 22.8414 8.69079 22.9095 9.52423C22.9301 9.77593 22.9399 10.0285 22.9589 10.2803C22.9629 10.3318 22.9858 10.3818 23 10.4324C22.9999 11.0627 22.9999 11.6929 22.9999 12.3231Z" fill="white"/>
</svg>
