<svg width="20" height="20" viewBox="0 0 20 20" fill="none" xmlns="http://www.w3.org/2000/svg">
<path d="M7.37332 18.5187C7.37225 18.3868 7.37119 17.8151 7.37012 17.28L7.36905 16.7241C4.97602 17.0522 4.39671 15.3684 4.3903 15.3504C4.05815 14.5011 3.60401 14.2583 3.58445 14.2483L3.54035 14.2225C3.37569 14.1091 2.93898 13.8075 3.0631 13.4108C3.17512 13.0533 3.60934 13.0163 3.80672 13.0228C4.89992 13.0999 5.45328 14.0908 5.47604 14.1328C6.03402 15.0972 6.88575 14.9975 7.4352 14.7942C7.48641 14.5474 7.56572 14.3207 7.66956 14.1206C5.90706 13.8054 3.9102 12.86 3.9102 9.42085C3.9102 8.47652 4.20182 7.64194 4.7783 6.93576C4.64956 6.50323 4.50304 5.62095 4.93691 4.50949L4.99878 4.35097L5.15953 4.29932C5.30747 4.25019 6.11546 4.07552 7.7766 5.17192C8.46226 4.99474 9.1881 4.90329 9.9367 4.8997C10.6889 4.90329 11.4154 4.99474 12.1025 5.17192C13.7622 4.07516 14.5684 4.25198 14.7167 4.29932L14.8771 4.35133L14.939 4.50913C15.3746 5.62023 15.2281 6.50287 15.0994 6.93576C15.6748 7.63979 15.9664 8.47473 15.9664 9.42085C15.9664 12.8607 13.9674 13.8032 12.201 14.1145C12.4012 14.4965 12.5097 14.976 12.5097 15.5054C12.5097 16.109 12.5072 18.0891 12.5043 18.5187L11.7931 18.5137C11.7959 18.0848 11.7984 16.1079 11.7984 15.505C11.7984 14.6292 11.4631 14.2418 11.3183 14.1156L10.7031 13.5787L11.5118 13.4879C13.3628 13.2806 15.2548 12.6347 15.2548 9.42049C15.2548 8.58484 14.9785 7.85642 14.4333 7.25568L14.2804 7.08747L14.3664 6.87694C14.4254 6.73312 14.6843 6.00112 14.3511 4.97932C14.0816 4.99546 13.4379 5.1235 12.3653 5.85694L12.2287 5.94983L12.0705 5.90572C11.4079 5.71994 10.67 5.62023 9.93634 5.61664C9.20659 5.62023 8.46973 5.71994 7.80826 5.90572L7.65 5.94983L7.51379 5.85694C6.44015 5.12386 5.79504 4.99474 5.5244 4.97861C5.19189 6.00112 5.45114 6.73312 5.51018 6.87694L5.59624 7.08747L5.44368 7.25568C4.89743 7.85857 4.62075 8.58699 4.62075 9.42049C4.62075 12.6333 6.50914 13.2832 8.35628 13.4951L9.15716 13.5869L8.54974 14.1213C8.41745 14.2379 8.18344 14.5201 8.10378 15.0994L8.07711 15.2963L7.89716 15.3777C7.42738 15.59 5.82064 16.1531 4.85724 14.4864C4.85191 14.4775 4.66378 14.1475 4.32309 13.928C4.55283 14.1572 4.83271 14.528 5.05853 15.1069C5.082 15.175 5.54112 16.4059 7.64751 15.9458L8.0764 15.8518L8.08067 17.2785C8.08173 17.8118 8.0828 18.3817 8.08387 18.5137L7.37332 18.5187Z" fill="#FCFCFC"/>
<path fill-rule="evenodd" clip-rule="evenodd" d="M9.76636 19.8521C4.38064 19.8521 0 15.5279 0 10.2115C0 4.8951 4.38064 0.570862 9.76636 0.570862C15.1521 0.570862 19.5327 4.8951 19.5327 10.2115C19.5327 15.5279 15.1521 19.8521 9.76636 19.8521ZM9.76636 2.0341C5.19909 2.0341 1.48232 5.70302 1.48232 10.2115C1.48232 14.72 5.19909 18.3889 9.76636 18.3889C14.3336 18.3889 18.0504 14.72 18.0504 10.2115C18.0504 5.70302 14.3336 2.0341 9.76636 2.0341Z" fill="#FCFCFC"/>
</svg>
