<svg width="21" height="20" viewBox="0 0 21 20" fill="none" xmlns="http://www.w3.org/2000/svg">
<path fill-rule="evenodd" clip-rule="evenodd" d="M7.87917 14.401C7.54735 14.5593 7.16394 14.3174 7.16394 13.9497V7.22992C7.16394 6.86882 7.53499 6.62679 7.86546 6.77233L15.191 9.99851C15.5825 10.1709 15.5908 10.7233 15.2047 10.9074L7.87917 14.401Z" fill="#FCFCFC"/>
<path fill-rule="evenodd" clip-rule="evenodd" d="M10.7353 19.8521C5.34957 19.8521 0.968933 15.5279 0.968933 10.2115C0.968933 4.8951 5.34957 0.570862 10.7353 0.570862C16.121 0.570862 20.5017 4.8951 20.5017 10.2115C20.5017 15.5279 16.121 19.8521 10.7353 19.8521ZM10.7353 2.0341C6.16803 2.0341 2.45125 5.70302 2.45125 10.2115C2.45125 14.72 6.16803 18.3889 10.7353 18.3889C15.3026 18.3889 19.0193 14.72 19.0193 10.2115C19.0193 5.70302 15.3026 2.0341 10.7353 2.0341Z" fill="#FCFCFC"/>
</svg>
