<svg width="21" height="20" viewBox="0 0 21 20" fill="none" xmlns="http://www.w3.org/2000/svg">
<path d="M7.52476 15.8148C7.34708 16.5821 7.41371 17.6637 7.49515 18.3652L8.09481 18.5918C8.46497 17.9998 9.0128 17.0352 9.21269 16.2605C9.32374 15.844 9.77534 14.1486 9.77534 14.1486C10.0641 14.704 10.9228 15.1717 11.8334 15.1717C14.543 15.1717 16.4974 12.7089 16.4974 9.64689C16.4974 6.70912 14.0692 4.51675 10.9524 4.51675C7.06576 4.51675 5.00767 7.08913 5.00767 9.88805C5.00767 11.1962 5.71098 12.8112 6.83626 13.3301C7.00654 13.4105 7.10278 13.3739 7.1398 13.2131C7.16941 13.0889 7.32487 12.4824 7.3915 12.2047C7.41371 12.117 7.40631 12.0366 7.33228 11.9489C6.96212 11.5031 6.66599 10.6846 6.66599 9.92459C6.66599 7.96608 8.16884 6.07333 10.7303 6.07333C12.9439 6.07333 14.4912 7.55683 14.4912 9.68343C14.4912 12.0804 13.2622 13.7466 11.6632 13.7466C10.7822 13.7466 10.1159 13.0231 10.3306 12.1389C10.5897 11.0792 11.0783 9.93921 11.0783 9.17919C11.0783 8.49955 10.7081 7.92954 9.9382 7.92954C9.03501 7.92954 8.3095 8.85033 8.3095 10.0854C8.3095 10.8673 8.57602 11.4008 8.57602 11.4008C8.57602 11.4008 7.68763 15.1205 7.52476 15.8148Z" fill="#FCFCFC"/>
<path fill-rule="evenodd" clip-rule="evenodd" d="M10.5764 19.8521C5.19063 19.8521 0.809998 15.5279 0.809998 10.2115C0.809998 4.8951 5.19063 0.570862 10.5764 0.570862C15.9621 0.570862 20.3427 4.8951 20.3427 10.2115C20.3427 15.5279 15.9621 19.8521 10.5764 19.8521ZM10.5764 2.0341C6.00909 2.0341 2.29232 5.70302 2.29232 10.2115C2.29232 14.72 6.00909 18.3889 10.5764 18.3889C15.1436 18.3889 18.8604 14.72 18.8604 10.2115C18.8604 5.70302 15.1436 2.0341 10.5764 2.0341Z" fill="#FCFCFC"/>
</svg>
