<svg width="19" height="18" viewBox="0 0 19 18" fill="none" xmlns="http://www.w3.org/2000/svg">
<path d="M9.66788 0.351379C7.26515 0.351379 6.96283 0.36133 6.01988 0.403977C5.28626 0.4187 4.56048 0.55617 3.87341 0.81054C3.28288 1.02855 2.74814 1.37216 2.3071 1.817C1.85701 2.25339 1.50826 2.7811 1.28497 3.36364C1.02727 4.0425 0.888518 4.75974 0.874677 5.4846C0.832928 6.41571 0.821411 6.71282 0.821411 9.08538C0.821411 11.458 0.831488 11.7536 0.874677 12.6862C0.889588 13.4106 1.02881 14.1273 1.28641 14.8057C1.50828 15.3883 1.85611 15.9161 2.30566 16.3524C2.74722 16.7973 3.28175 17.1417 3.87197 17.3617C4.55965 17.6155 5.28588 17.7524 6.01988 17.7668C6.96283 17.8094 7.26371 17.8194 9.66644 17.8194C12.0692 17.8194 12.3686 17.8094 13.313 17.7668C14.047 17.7524 14.7732 17.6155 15.4609 17.3617C16.0492 17.1363 16.5835 16.7924 17.0296 16.3519C17.4758 15.9113 17.8241 15.3837 18.0522 14.8029C18.3085 14.124 18.4476 13.4076 18.464 12.6833C18.5057 11.7522 18.5172 11.4551 18.5172 9.08254C18.5172 6.70997 18.5057 6.41287 18.464 5.48175C18.4476 4.75703 18.3085 4.04012 18.0522 3.3608C17.83 2.77806 17.4817 2.25023 17.0315 1.81415C16.5908 1.36899 16.056 1.02533 15.4652 0.807697C14.7757 0.553668 14.0474 0.417153 13.3116 0.403977C12.3672 0.36133 12.0677 0.351379 9.665 0.351379H9.66788ZM8.87321 1.92504H9.66788C12.0289 1.92504 12.3081 1.93357 13.241 1.97621C13.8019 1.98252 14.3575 2.08398 14.8836 2.27616C15.2677 2.41626 15.615 2.63973 15.9 2.93007C16.1934 3.21194 16.4196 3.55477 16.5622 3.93369C16.7569 4.45317 16.8596 5.00182 16.866 5.55568C16.9092 6.47542 16.9178 6.75262 16.9178 9.08396C16.9178 11.4153 16.9092 11.6911 16.866 12.6123C16.8598 13.1657 16.757 13.7139 16.5622 14.2328C16.4149 14.6092 16.1894 14.951 15.9003 15.2362C15.6112 15.5214 15.2649 15.7438 14.8836 15.8889C14.3579 16.0826 13.8021 16.1846 13.241 16.1903C12.3096 16.2329 12.0289 16.2415 9.66788 16.2415C7.3069 16.2415 7.02618 16.2329 6.0933 16.1903C5.53232 16.1835 4.97669 16.0816 4.4507 15.8889C4.06623 15.7494 3.7184 15.5264 3.43288 15.2364C3.13937 14.9549 2.91356 14.612 2.7721 14.2328C2.57698 13.7134 2.47374 13.1648 2.4669 12.6108C2.42515 11.6897 2.41651 11.4139 2.41651 9.08112C2.41651 6.74836 2.42515 6.474 2.4669 5.55283C2.47288 4.99881 2.57614 4.45001 2.7721 3.93084C2.91356 3.55171 3.13937 3.20875 3.43288 2.92723C3.71863 2.63716 4.06636 2.41375 4.4507 2.27332C4.97686 2.08124 5.53238 1.97932 6.0933 1.97195C6.90957 1.93641 7.22485 1.92504 8.87321 1.92361V1.92504ZM14.3884 3.37502C14.1782 3.37502 13.9727 3.43658 13.798 3.55192C13.6232 3.66726 13.4871 3.83119 13.4067 4.02298C13.3263 4.21476 13.3054 4.42577 13.3465 4.62931C13.3876 4.83286 13.4889 5.01979 13.6377 5.16645C13.7864 5.31312 13.9758 5.41292 14.182 5.45324C14.3882 5.49356 14.6019 5.47258 14.796 5.39296C14.9901 5.31334 15.1559 5.17865 15.2725 5.00594C15.3891 4.83323 15.4511 4.63025 15.4508 4.4227C15.4508 4.285 15.4233 4.14864 15.3699 4.02144C15.3165 3.89424 15.2382 3.77868 15.1396 3.68137C15.0409 3.58407 14.9238 3.50693 14.7949 3.45436C14.666 3.40179 14.5279 3.37483 14.3884 3.37502ZM9.66788 4.60039C8.76956 4.60039 7.89141 4.86343 7.14448 5.35625C6.39755 5.84907 5.81539 6.54953 5.47162 7.36905C5.12784 8.18858 5.0379 9.09036 5.21315 9.96036C5.38841 10.8304 5.82099 11.6295 6.4562 12.2568C7.09141 12.884 7.90072 13.3111 8.78178 13.4842C9.66284 13.6573 10.5761 13.5684 11.406 13.229C12.236 12.8895 12.9453 12.3147 13.4444 11.5771C13.9435 10.8396 14.2099 9.97243 14.2099 9.08538C14.2095 7.89601 13.7309 6.75545 12.8791 5.91443C12.0274 5.07342 10.8724 4.60077 9.66788 4.60039ZM9.66788 6.17405C10.2512 6.17321 10.8216 6.34324 11.3071 6.66262C11.7925 6.98201 12.1711 7.4364 12.3949 7.96831C12.6187 8.50021 12.6777 9.08572 12.5644 9.65074C12.4511 10.2158 12.1707 10.7349 11.7585 11.1425C11.3464 11.5501 10.821 11.8278 10.249 11.9405C9.67694 12.0531 9.08391 11.9957 8.54492 11.7755C8.00593 11.5553 7.5452 11.1821 7.22104 10.7033C6.89688 10.2244 6.72386 9.66137 6.72386 9.08538C6.72538 8.31497 7.03609 7.57657 7.58791 7.03194C8.13973 6.48731 8.88768 6.18086 9.66788 6.17974V6.17405Z" fill="#FCFCFC"/>
</svg>
