<svg width="25" height="25" viewBox="0 0 25 25" fill="none" xmlns="http://www.w3.org/2000/svg">
<path fill-rule="evenodd" clip-rule="evenodd" d="M12 5C15.64 5 18.67 7.59 19.35 11.04C21.95 11.22 24 13.36 24 16C24 18.76 21.76 21 19 21H6C2.69 21 0 18.31 0 15C0 11.91 2.34 9.36 5.35 9.04C6.6 6.64 9.11 5 12 5ZM6 19H19C20.65 19 22 17.65 22 16C22 14.45 20.78 13.14 19.22 13.04L17.69 12.93L17.39 11.43C16.88 8.86 14.62 7 12 7C9.94 7 8.08 8.14 7.13 9.97L6.63 10.92L5.56 11.03C3.53 11.24 2 12.95 2 15C2 17.21 3.79 19 6 19Z" fill="white"/>
<path d="M9.3252 12.2222H14.3252V13.5556L16.3252 11.7778L14.3252 10V11.3333H8.3252V14H9.3252V12.2222Z" fill="white"/>
<path d="M13.4502 15.7778H9.0752V14.4444L7.3252 16.2222L9.0752 18V16.6667H14.3252V14H13.4502V15.7778Z" fill="white"/>
</svg>
