<svg width="19" height="18" viewBox="0 0 19 18" fill="none" xmlns="http://www.w3.org/2000/svg">
<path fill-rule="evenodd" clip-rule="evenodd" d="M13.8938 10.815C13.6748 10.7046 12.5915 10.1834 12.3898 10.1098C12.1882 10.0362 12.0441 10.0022 11.8943 10.2203C11.7445 10.4383 11.318 10.9227 11.1942 11.07C11.0703 11.2172 10.9377 11.2342 10.7188 11.1238C10.0701 10.8685 9.47153 10.5043 8.94974 10.0475C8.46837 9.60967 8.05485 9.10487 7.72237 8.54919C7.69768 8.51411 7.68058 8.47443 7.67213 8.43259C7.66367 8.39075 7.66405 8.34765 7.67324 8.30596C7.68242 8.26427 7.70021 8.22488 7.72552 8.19023C7.75082 8.15558 7.78309 8.1264 7.82033 8.10451C7.92117 8.00821 8.03929 7.85244 8.15166 7.72498C8.24151 7.61478 8.31521 7.49275 8.37063 7.36244C8.39953 7.30261 8.41307 7.23673 8.41006 7.17056C8.40704 7.10439 8.38757 7.03996 8.35334 6.98291C8.29572 6.87528 7.8549 5.81033 7.67627 5.37415C7.49764 4.93797 7.31324 5.01161 7.17783 5.00312C7.04241 4.99462 6.90412 5.00312 6.75718 5.00312C6.64656 5.00921 6.53838 5.03748 6.43929 5.08619C6.34019 5.13489 6.25228 5.20301 6.18095 5.28635C5.93167 5.51834 5.73428 5.79883 5.60134 6.10994C5.4684 6.42105 5.40283 6.75598 5.4088 7.09337C5.4088 8.15833 6.19824 9.18646 6.30772 9.33374C6.4172 9.48102 7.84338 11.6506 10.0619 12.5853C10.4714 12.7591 10.8897 12.9122 11.3152 13.0441C11.764 13.1784 12.2386 13.2075 12.701 13.1291C13.1245 13.0696 14.0033 12.6079 14.1877 12.1009C14.3322 11.778 14.3773 11.4206 14.3173 11.0728C14.2655 10.9765 14.1185 10.9227 13.8967 10.8122L13.8938 10.815ZM16.1123 2.88454C14.6005 1.40052 12.5917 0.506873 10.4598 0.369849C8.3279 0.232824 6.21793 0.861749 4.52241 2.13963C2.8269 3.4175 1.66129 5.25732 1.24242 7.31683C0.823549 9.37633 1.17994 11.5153 2.24529 13.3358L0.994873 17.8194L5.66811 16.6157C6.95907 17.3059 8.40503 17.6681 9.87459 17.6693C11.6179 17.6698 13.3223 17.162 14.772 16.2102C16.2218 15.2584 17.3519 13.9053 18.0193 12.3221C18.6867 10.7388 18.8615 8.99657 18.5215 7.31567C18.1815 5.63477 17.3421 4.09074 16.1094 2.87887L16.1123 2.88454ZM9.88035 16.2078C8.56291 16.2103 7.26911 15.8639 6.13485 15.2052L5.8669 15.0465L3.10964 15.7518L3.8501 13.0951L3.67723 12.8118C2.82028 11.4573 2.44534 9.86137 2.61133 8.27465C2.77732 6.68792 3.47482 5.20037 4.59425 4.04568C5.71368 2.89099 7.19161 2.1346 8.79585 1.89535C10.4001 1.6561 12.0397 1.94755 13.4572 2.7239C14.8746 3.50024 15.9895 4.71751 16.6267 6.18444C17.264 7.65138 17.3874 9.28485 16.9777 10.8283C16.5679 12.3717 15.6482 13.7375 14.3631 14.7112C13.0779 15.685 11.5001 16.2114 9.87747 16.2078H9.88035Z" fill="#FCFCFC"/>
</svg>
