<svg width="17" height="15" viewBox="0 0 17 15" fill="none" xmlns="http://www.w3.org/2000/svg">
<path fill-rule="evenodd" clip-rule="evenodd" d="M14.046 4.5164H13.2349V0.513489H3.50264V4.5164H2.69162C1.34532 4.5164 0.258545 5.58919 0.258545 6.91815V11.7217H3.50264V14.924H13.2349V11.7217H16.479V6.91815C16.479 5.58919 15.3923 4.5164 14.046 4.5164ZM5.12481 2.11469H11.613V4.51644H5.12481V2.11469ZM5.12481 13.3228H11.613V10.1205H5.12481V13.3228ZM13.235 10.1205V8.5193H3.5027V10.1205H1.88065V6.91814C1.88065 6.47782 2.24561 6.11755 2.69168 6.11755H14.046C14.4921 6.11755 14.857 6.47782 14.857 6.91814V10.1205H13.235ZM12.424 7.31847C12.424 6.87632 12.7871 6.51788 13.235 6.51788C13.6829 6.51788 14.046 6.87632 14.046 7.31847C14.046 7.76062 13.6829 8.11905 13.235 8.11905C12.7871 8.11905 12.424 7.76062 12.424 7.31847Z" fill="#FCFCFC"/>
</svg>
