<svg width="804" height="800" viewBox="0 0 804 800" fill="none" xmlns="http://www.w3.org/2000/svg">
<path d="M4 0H804V800H4V0Z" fill="#191F31"/>
<path d="M0 0L800 6.10352e-05V800H0V0Z" fill="#10172B" fill-opacity="0.63"/>
<path d="M577.54 408.321C577.54 408.321 600.223 376.785 613.389 363.533C626.56 350.282 633.164 332.631 633.164 332.631C623.308 312.687 618.787 319.974 618.433 319.964C608.469 319.798 574.622 325.042 553.093 331.213C557.639 319.516 562.041 308.704 566.229 298.801L599.974 292.993L606.094 280.994C606.094 280.994 606.582 277.503 573.878 281.16C593.18 237.73 606.427 216.126 606.427 216.126L588.824 218.023C584.545 218.481 580.63 220.537 578.014 223.756C565.376 239.301 553.76 260.744 543.217 285.316C515.824 289.516 476.492 296.525 420.033 307.981C420.033 307.981 409.924 316.812 408.837 324.893C411.376 326.99 413.716 325.039 413.716 325.039L535.592 304.073C524.217 333.547 514.263 366.146 505.838 397.808C503.365 400.142 500.24 403.083 496.582 406.462C486.905 415.388 474.91 422.62 474.91 422.62C460.189 429.992 486.305 358.954 486.305 358.954C471.893 349.57 458.593 355.826 448.969 366.376C439.657 376.605 430.723 390.148 430.169 390.979L440.358 362.947C427.665 345.048 422.046 355.222 422.046 355.222C409.896 369.202 394.232 431.214 394.232 431.214C387.516 438.833 347.738 465.295 337.742 471.465C327.732 477.647 326.788 474.688 326.788 474.688C320.236 455.924 332.221 424.636 333.172 422.447C334.115 420.259 335.543 421.508 335.543 421.508C353.28 435.061 365.475 416.293 373.044 404.067C380.616 391.847 379.894 377.639 379.894 377.639C375.482 361.929 355.072 365.691 355.072 365.691C325.262 372.581 310.896 403.619 305.565 419.516C304.036 424.103 301.44 432.964 296.642 434.593L272.343 446.999C281.188 422.447 276.19 396.207 276.19 396.207C276.19 396.207 270.136 372.51 247.58 380.421C225.02 388.343 188.263 429.273 188.263 429.273C190.634 417.243 233.558 303.7 239.355 288.729C245.153 273.758 250.165 267.377 250.165 267.377C250.165 267.377 226.907 266.169 213.327 281.327C199.746 296.478 142 477.932 142 477.932C145.77 488.472 165.545 483.438 165.545 483.438C167.376 480.737 173.262 480.666 173.262 480.666C173.262 480.666 229.121 415.259 248.124 399.85C267.134 384.441 242.193 458.106 242.193 458.106C214.712 471.554 189.213 488.235 170.291 502.683C141.071 524.982 136.658 552.651 167.464 562.191C228.844 578.821 265.482 466.696 265.482 466.696L300.612 447.796C298.95 463.642 301.177 471.554 321.032 484.784C340.898 498.015 390.139 453.414 390.139 453.414L385.018 470.271C381.283 484.618 399.841 487.193 399.841 487.193C399.841 487.193 398.732 486.152 400.349 482.878C401.98 479.604 409.051 455.249 409.051 455.249C424.915 421.223 460.322 381.083 460.322 381.083C455.412 400.077 450.835 418.383 466.618 430.321C477.316 438.423 491.693 428.405 499.84 421.118C482.072 492.719 472.549 553.832 472.549 553.832L487.968 543.96C506.701 464.82 527.332 400.132 546.058 349.757C566.997 342.249 594.123 336.007 601.952 334.986C602.818 334.87 605.277 337.018 604.789 337.571C581.532 364.229 546.889 410.757 546.889 410.757C543.631 421.433 558.085 426.291 558.085 426.291C564.959 418.672 646.447 416.782 655.626 415.71C664.794 414.638 686 410.455 686 410.455C658.032 402.544 577.54 408.321 577.54 408.321ZM361.592 378.681C361.592 378.681 360.105 390.745 353.922 399.864C347.734 408.996 337.328 419.808 336.441 414.407C336.441 414.407 346.616 389.035 361.592 378.681ZM177.018 548.699C162.61 529.932 232.07 482.423 232.07 482.423C205.088 536.042 177.018 548.699 177.018 548.699Z" fill="white"/>
</svg>
