<svg width="130" height="88" viewBox="0 0 130 88" fill="none" xmlns="http://www.w3.org/2000/svg">
<path d="M104.081 48.6363C104.081 48.6363 109.502 40.6558 112.648 37.3025C115.796 33.9492 117.374 29.4824 117.374 29.4824C115.019 24.4353 113.938 26.2794 113.854 26.2768C111.472 26.2348 103.384 27.562 98.2393 29.1236C99.3255 26.1635 100.377 23.4275 101.378 20.9215L109.442 19.4518L110.905 16.4153C110.905 16.4153 111.021 15.5319 103.206 16.4574C107.819 5.4669 110.984 0 110.984 0L106.778 0.479899C105.755 0.595796 104.82 1.11604 104.194 1.93076C101.175 5.86438 98.3985 11.2909 95.879 17.509C89.3329 18.5718 79.9337 20.3455 66.4417 23.2446C66.4417 23.2446 64.026 25.4793 63.7662 27.5242C64.3731 28.0548 64.9321 27.5611 64.9321 27.5611L94.0568 22.2556C91.3386 29.7142 88.9599 37.9635 86.9466 45.9758C86.3557 46.5665 85.6089 47.3108 84.7347 48.1659C82.4222 50.4246 79.5556 52.2549 79.5556 52.2549C76.0378 54.1204 82.2789 36.1435 82.2789 36.1435C78.8348 33.7689 75.6565 35.352 73.3565 38.0219C71.1312 40.6103 68.9964 44.0374 68.864 44.2477L71.2988 37.154C68.2655 32.6245 66.9228 35.1992 66.9228 35.1992C64.0193 38.737 60.2761 54.4295 60.2761 54.4295C58.671 56.3576 49.1653 63.0539 46.7765 64.6155C44.3844 66.1797 44.1589 65.4311 44.1589 65.4311C42.5932 60.6827 45.4573 52.7648 45.6844 52.2111C45.9099 51.6574 46.251 51.9733 46.251 51.9733C50.4896 55.403 53.4039 50.6538 55.2127 47.5598C57.0223 44.4675 56.8496 40.8721 56.8496 40.8721C55.7952 36.8964 50.9179 37.8485 50.9179 37.8485C43.7943 39.5921 40.3612 47.4464 39.0872 51.4694C38.7217 52.63 38.1015 54.8724 36.9549 55.2845L31.148 58.424C33.2619 52.2111 32.0675 45.5706 32.0675 45.5706C32.0675 45.5706 30.6208 39.5741 25.2306 41.5761C19.8395 43.5806 11.0554 53.9384 11.0554 53.9384C11.622 50.8942 21.8796 22.1612 23.2651 18.3727C24.6505 14.5841 25.8483 12.9693 25.8483 12.9693C25.8483 12.9693 20.2904 12.6637 17.045 16.4994C13.7996 20.3335 0 66.2518 0 66.2518C0.901032 68.9191 5.62663 67.6451 5.62663 67.6451C6.06415 66.9618 7.4706 66.9437 7.4706 66.9437C7.4706 66.9437 20.8193 50.3919 25.3605 46.4927C29.9034 42.5934 23.9431 61.2347 23.9431 61.2347C17.3761 64.6378 11.2826 68.859 6.76067 72.5154C-0.222114 78.1583 -1.27653 85.1601 6.08511 87.5742C20.7531 91.7826 29.5086 63.4084 29.5086 63.4084L37.9037 58.6258C37.5064 62.6358 38.0386 64.6378 42.7835 67.9859C47.5309 71.3341 59.2979 60.0474 59.2979 60.0474L58.0742 64.3133C57.1816 67.9439 61.6163 68.5955 61.6163 68.5955C61.6163 68.5955 61.3515 68.3319 61.7379 67.5035C62.1276 66.675 63.8173 60.5119 63.8173 60.5119C67.6084 51.9012 76.0697 41.7435 76.0697 41.7435C74.8963 46.5502 73.8024 51.1826 77.5742 54.2037C80.1306 56.2537 83.5663 53.7186 85.5133 51.8746C81.2672 69.994 78.9916 85.4589 78.9916 85.4589L82.6761 82.9607C87.1528 62.9337 92.0829 46.5639 96.5579 33.8161C101.562 31.9163 108.044 30.3366 109.915 30.0782C110.122 30.049 110.71 30.5925 110.593 30.7324C105.035 37.4785 96.7565 49.2527 96.7565 49.2527C95.9779 51.9544 99.432 53.1838 99.432 53.1838C101.075 51.2556 120.548 50.7774 122.741 50.5061C124.932 50.2348 130 49.1763 130 49.1763C123.316 47.1743 104.081 48.6363 104.081 48.6363ZM52.4761 41.1357C52.4761 41.1357 52.1207 44.1885 50.643 46.4961C49.1645 48.8072 46.6776 51.5432 46.4656 50.1765C46.4656 50.1765 48.8971 43.7558 52.4761 41.1357ZM8.36828 84.16C4.92508 79.4108 21.5242 67.3884 21.5242 67.3884C15.0761 80.9569 8.36828 84.16 8.36828 84.16Z" fill="white"/>
</svg>
