<svg width="161" height="44" viewBox="0 0 161 44" fill="none" xmlns="http://www.w3.org/2000/svg">
<path d="M9.67466 13.9193L15.6536 17.3193L14.067 10.9113L19.3493 6.59972L12.3932 6.04369L9.67466 0.000244141L6.95608 6.04369L0 6.59972L5.28236 10.9113L3.69572 17.3193L9.67466 13.9193Z" fill="#FCFCFC"/>
<path d="M30.6688 13.9191L36.9467 17.3191L35.2807 10.911L40.8272 6.59947L33.5233 6.04344L30.6688 0L27.8143 6.04344L20.5104 6.59947L26.0569 10.911L24.3909 17.3191L30.6688 13.9191Z" fill="#FCFCFC"/>
<path d="M51.6625 13.9191L57.6415 17.3191L56.0548 10.911L61.3372 6.59947L54.3811 6.04344L51.6625 0L48.9439 6.04344L41.9879 6.59947L47.2702 10.911L45.6836 17.3191L51.6625 13.9191Z" fill="#FCFCFC"/>
<path d="M72.1728 13.9191L78.1517 17.3191L76.5651 10.911L81.8474 6.59947L74.8913 6.04344L72.1728 0L69.4542 6.04344L62.4981 6.59947L67.7805 10.911L66.1938 17.3191L72.1728 13.9191Z" fill="#FCFCFC"/>
<path fill-rule="evenodd" clip-rule="evenodd" d="M95.4018 6.03433L102.358 6.59947L97.0852 10.911L98.6621 17.3191L92.6832 13.9191L86.7043 17.3191L88.2909 10.911L83.0085 6.59947L89.9646 6.04344L92.6832 0L95.4018 6.03433ZM89.0452 14.284L92.6829 12.2148L96.3302 14.2931L95.3628 10.3917L98.5747 7.76654L94.3372 7.42016L92.6829 3.73758L91.0382 7.41105L86.8007 7.75743L90.0127 10.3826L89.0452 14.284Z" fill="#FCFCFC"/>
<path fill-rule="evenodd" clip-rule="evenodd" d="M5.06772 36.8992V43.6386H0V22H9.49215C12.8582 22 14.8628 22.7906 16.3289 24.2608C17.6866 25.6803 18.4264 27.542 18.3972 29.4657C18.4219 31.3886 17.6827 33.2488 16.3289 34.6706C14.904 36.1014 12.8768 36.8992 9.49215 36.8992H5.06772V36.8992ZM9.26775 32.6065C10.9919 32.6065 11.8558 32.213 12.4543 31.6013C13.0207 31.0306 13.3308 30.2704 13.3181 29.4836C13.3284 28.6887 13.0192 27.9203 12.4543 27.3372C11.8558 26.7005 10.9919 26.2927 9.26775 26.2927H5.06772V32.5886L9.26775 32.6065ZM86.5476 43.6386C85.5556 43.8822 84.5348 44.0024 83.5108 43.9964C80.5935 43.9964 78.4617 43.0663 77.2275 41.4923C76.2925 40.3119 75.881 38.7665 75.881 36.3054V30.2276H73.3491V26.2927H75.8885V22.8729L80.7506 22V26.2927H86.7346V30.2276H80.7506V36.8455C80.7506 37.9187 80.9413 38.5626 81.349 39.024C81.8352 39.5678 82.6206 39.8826 83.8174 39.8826C84.4822 39.8755 85.1452 39.8145 85.7995 39.7002L86.5476 43.6386ZM30.6681 25.935C28.4615 25.935 26.4792 26.7577 25.3947 28.0455V26.2927H20.7272V43.6423H25.5892V32.7317C26.1875 31.6943 27.8668 30.2276 30.0024 30.2276C30.594 30.2131 31.185 30.2745 31.7602 30.4101V25.9993C31.398 25.9543 31.0332 25.9328 30.6681 25.935ZM41.8582 25.935C47.3635 25.935 51.5075 29.9772 51.5075 34.9854C51.5075 39.9935 47.356 44 41.8582 44C36.3604 44 32.2089 39.9935 32.2089 34.9854C32.2089 29.9772 36.3678 25.935 41.8656 25.935H41.8582V25.935ZM41.8582 39.7074C44.7081 39.7074 46.6454 37.5968 46.6454 34.9854C46.6454 32.374 44.7081 30.2276 41.8656 30.2276C39.0232 30.2276 37.0785 32.374 37.0785 34.9854C37.0785 37.5968 39.0232 39.7037 41.8656 39.7037L41.8582 39.7074ZM53.8561 26.2927V43.6423H58.7182V32.374C59.243 31.7265 59.9113 31.1982 60.6751 30.8271C61.4387 30.456 62.2789 30.2513 63.1352 30.2276C64.1427 30.1926 65.1241 30.5397 65.8654 31.1935C66.5385 31.8374 66.9499 32.7317 66.9499 34.4488V43.6386H71.812V34.8029C71.812 31.8338 71.1425 30.081 69.9419 28.7216C69.1712 27.8459 68.2093 27.1423 67.1238 26.6602C66.0382 26.1782 64.8555 25.9294 63.6587 25.9314C61.7881 25.9257 59.9742 26.5458 58.5311 27.6842V26.2927H53.8561V26.2927ZM106.882 34.9854C106.882 29.9772 102.738 25.935 97.2328 25.935C91.7275 25.935 87.5798 29.9772 87.5798 34.9854C87.5798 39.9935 91.735 44 97.2328 44C102.731 44 106.867 39.99 106.867 34.9818L106.882 34.9854ZM102.02 34.9854C102.02 37.5968 100.083 39.7074 97.2365 39.7074C94.3904 39.7074 92.4494 37.5968 92.4494 34.9854C92.4494 32.374 94.3941 30.2276 97.2365 30.2276C100.079 30.2276 102.001 32.374 102.001 34.9818L102.02 34.9854V34.9854ZM134.894 28.0455C135.983 26.7577 137.962 25.935 140.172 25.935C140.533 25.9344 140.895 25.9571 141.253 26.0029V30.4065C140.678 30.2705 140.087 30.2092 139.495 30.2241C137.363 30.2241 135.681 31.6907 135.082 32.7281V43.6386H130.22V26.2927H134.894V28.0455ZM151.351 25.935C156.86 25.935 161 29.9772 161 34.9854C161 39.9935 156.852 44 151.351 44C145.849 44 141.701 39.9935 141.701 34.9854C141.701 29.9772 145.86 25.935 151.34 25.935H151.351ZM151.351 39.7074C154.201 39.7074 156.138 37.5968 156.138 34.9854C156.138 32.374 154.181 30.2276 151.34 30.2276C148.497 30.2276 146.552 32.374 146.552 34.9854C146.552 37.5968 148.497 39.7037 151.34 39.7037L151.351 39.7074V39.7074ZM114.553 43.6423V36.8992H118.969C122.336 36.8992 124.378 36.1086 125.803 34.6706C127.155 33.2485 127.894 31.3882 127.867 29.4657C127.896 27.5428 127.158 25.6816 125.803 24.2608C124.337 22.7906 122.346 22 118.969 22H109.474V43.6386L114.553 43.6423ZM121.924 31.5834C121.322 32.1951 120.459 32.5886 118.734 32.5886H114.542V26.2927H118.741C120.465 26.2927 121.33 26.6862 121.932 27.2979C122.496 27.8818 122.804 28.6496 122.796 29.4442C122.811 30.2392 122.498 31.0077 121.924 31.5834V31.5834Z" fill="#FCFCFC"/>
<path d="M107 14.9714L109.039 12.3166C109.42 12.7007 109.884 13.0346 110.431 13.3184C110.995 13.5856 111.517 13.7191 111.998 13.7191C112.429 13.7191 112.76 13.6357 112.992 13.4687C113.224 13.3017 113.34 13.0847 113.34 12.8175C113.34 12.5504 113.191 12.3166 112.893 12.1163C112.611 11.9159 112.064 11.6321 111.252 11.2648C110.572 10.9642 109.992 10.6637 109.511 10.3631C109.031 10.0459 108.641 9.72033 108.343 9.3864C108.044 9.05248 107.829 8.68515 107.696 8.28444C107.564 7.88372 107.497 7.44126 107.497 6.95707C107.497 6.42278 107.613 5.92188 107.845 5.45438C108.077 4.97018 108.409 4.54442 108.84 4.1771C109.271 3.80978 109.793 3.52594 110.406 3.32558C111.02 3.10853 111.708 3 112.47 3C113.498 3 114.385 3.15862 115.131 3.47585C115.893 3.77639 116.523 4.18545 117.02 4.70304L115.056 7.35778C114.708 7.04055 114.327 6.7901 113.912 6.60644C113.498 6.40608 113.083 6.3059 112.669 6.3059C112.338 6.3059 112.064 6.36434 111.849 6.48122C111.633 6.5814 111.525 6.74836 111.525 6.98211C111.525 7.19917 111.65 7.38283 111.898 7.53309C112.147 7.68336 112.603 7.89207 113.266 8.15921C113.962 8.45975 114.559 8.76029 115.056 9.06082C115.57 9.36136 115.993 9.68694 116.324 10.0376C116.672 10.3715 116.921 10.7472 117.07 11.1646C117.236 11.582 117.319 12.0662 117.319 12.6172C117.319 13.2349 117.194 13.811 116.946 14.3453C116.714 14.8795 116.374 15.347 115.926 15.7478C115.479 16.1318 114.94 16.4323 114.31 16.6494C113.68 16.8831 112.976 17 112.197 17C111.053 17 110.058 16.8247 109.213 16.4741C108.368 16.1234 107.63 15.6225 107 14.9714Z" fill="#FCFCFC"/>
<path d="M121.742 3.35063H125.844V10.0626C125.844 12.1497 126.508 13.1932 127.834 13.1932C128.58 13.1932 129.102 12.9428 129.4 12.4419C129.715 11.9243 129.873 11.1562 129.873 10.1377V3.35063H134V10.2379C134 12.5587 133.461 14.2618 132.384 15.347C131.306 16.4323 129.798 16.975 127.859 16.975C125.853 16.975 124.328 16.449 123.283 15.3971C122.256 14.3453 121.742 12.6673 121.742 10.3631V3.35063Z" fill="#FCFCFC"/>
</svg>
