<svg width="138" height="264" viewBox="0 0 138 264" fill="none" xmlns="http://www.w3.org/2000/svg">
<path d="M60.188 61.752L107.576 61.752L107.576 78.648L80.318 90.99L107.576 90.99L107.576 103.86L60.188 103.86L60.188 87.492L87.248 74.622L60.188 74.622L60.188 61.752Z" fill="#FCFCFC"/>
<path d="M83.948 114.963C87.336 114.963 90.526 115.557 93.518 116.745C96.554 117.977 99.194 119.693 101.438 121.893C103.682 124.137 105.464 126.799 106.784 129.879C108.104 133.003 108.764 136.479 108.764 140.307C108.764 144.135 108.104 147.589 106.784 150.669C105.464 153.793 103.682 156.455 101.438 158.655C99.194 160.899 96.554 162.615 93.518 163.803C90.526 165.035 87.336 165.651 83.948 165.651C80.252 165.651 76.864 165.035 73.784 163.803C70.748 162.615 68.13 160.899 65.93 158.655C63.774 156.455 62.102 153.793 60.914 150.669C59.726 147.545 59.132 144.091 59.132 140.307C59.132 136.523 59.726 133.069 60.914 129.945C62.102 126.821 63.774 124.137 65.93 121.893C68.13 119.693 70.748 117.977 73.784 116.745C76.864 115.557 80.252 114.963 83.948 114.963ZM83.948 129.153C82.32 129.153 80.78 129.395 79.328 129.879C77.92 130.407 76.688 131.155 75.632 132.123C74.576 133.091 73.74 134.257 73.124 135.621C72.552 136.985 72.266 138.547 72.266 140.307C72.266 142.067 72.552 143.629 73.124 144.993C73.74 146.401 74.576 147.567 75.632 148.491C76.688 149.459 77.92 150.185 79.328 150.669C80.78 151.197 82.32 151.461 83.948 151.461C85.576 151.461 87.094 151.197 88.502 150.669C89.91 150.185 91.142 149.459 92.198 148.491C93.254 147.567 94.068 146.401 94.64 144.993C95.256 143.629 95.564 142.067 95.564 140.307C95.564 138.547 95.256 136.985 94.64 135.621C94.068 134.257 93.254 133.091 92.198 132.123C91.142 131.155 89.91 130.407 88.502 129.879C87.094 129.395 85.576 129.153 83.948 129.153Z" fill="#FCFCFC"/>
<path d="M48.576 72.576L48.576 89.67L1.18803 105.312L1.18803 90.858L8.84403 88.68L8.84403 73.302L1.18803 71.124L1.18803 57L48.576 72.576ZM20.724 85.314L36.036 81.024L20.724 76.668L20.724 85.314Z" fill="#FCFCFC"/>
<path d="M9.70203 109.3L15.972 119.266C14.52 120.146 13.42 121.092 12.672 122.104C11.924 123.116 11.55 124.26 11.55 125.536C11.55 126.592 11.792 127.384 12.276 127.912C12.76 128.44 13.354 128.704 14.058 128.704C14.41 128.704 14.74 128.638 15.048 128.506C15.4 128.374 15.774 128.11 16.17 127.714C16.61 127.362 17.094 126.834 17.622 126.13C18.194 125.426 18.854 124.502 19.602 123.358C20.878 121.466 22.088 119.794 23.232 118.342C24.376 116.89 25.564 115.658 26.796 114.646C28.072 113.634 29.436 112.864 30.888 112.336C32.34 111.808 33.99 111.544 35.838 111.544C37.994 111.544 39.908 111.94 41.58 112.732C43.296 113.524 44.748 114.602 45.936 115.966C47.124 117.374 48.026 119.024 48.642 120.916C49.258 122.852 49.566 124.92 49.566 127.12C49.566 130.156 48.994 132.862 47.85 135.238C46.75 137.614 45.078 139.814 42.834 141.838L35.178 133.324C36.058 132.576 36.85 131.74 37.554 130.816C38.302 129.892 38.676 128.858 38.676 127.714C38.676 125.822 37.862 124.876 36.234 124.876C35.486 124.876 34.738 125.316 33.99 126.196C33.286 127.076 32.296 128.528 31.02 130.552C29.612 132.796 28.248 134.644 26.928 136.096C25.608 137.548 24.31 138.714 23.034 139.594C21.758 140.474 20.438 141.09 19.074 141.442C17.754 141.794 16.346 141.97 14.85 141.97C12.694 141.97 10.692 141.552 8.84403 140.716C7.04003 139.924 5.47803 138.802 4.15803 137.35C2.83803 135.898 1.82603 134.182 1.12203 132.202C0.374029 130.222 2.74122e-05 128.044 2.7516e-05 125.668C2.76987e-05 121.488 0.836031 118.078 2.50803 115.438C4.22403 112.842 6.62203 110.796 9.70203 109.3Z" fill="#FCFCFC"/>
<path d="M48.576 162.867L48.576 179.961L1.18803 195.603L1.18803 181.149L8.84403 178.971L8.84403 163.593L1.18803 161.415L1.18803 147.291L48.576 162.867ZM20.724 175.605L36.036 171.315L20.724 166.959L20.724 175.605Z" fill="#FCFCFC"/>
<path d="M48.576 204.343L48.576 221.371C48.576 224.671 48.136 227.509 47.256 229.885C46.376 232.305 45.166 234.285 43.626 235.825C42.13 237.409 40.326 238.553 38.214 239.257C36.146 240.005 33.924 240.379 31.548 240.379C29.348 240.379 27.214 239.983 25.146 239.191C23.122 238.443 21.318 237.277 19.734 235.693C18.194 234.153 16.94 232.217 15.972 229.885C15.048 227.597 14.586 224.891 14.586 221.767L14.586 217.873L1.18803 217.873L1.18803 204.343L48.576 204.343ZM36.432 217.873L26.73 217.873L26.73 220.117C26.73 224.209 28.336 226.255 31.548 226.255C34.804 226.255 36.432 224.077 36.432 219.721L36.432 217.873Z" fill="#FCFCFC"/>
<path d="M17.556 249.863L49.764 249.863L49.764 263.063L17.556 263.063L17.556 249.863ZM7.26002 248.939C8.18402 248.939 9.06402 249.093 9.90002 249.401C10.736 249.709 11.462 250.171 12.078 250.787C12.738 251.403 13.266 252.173 13.662 253.097C14.058 254.021 14.256 255.121 14.256 256.397C14.256 257.673 14.058 258.773 13.662 259.697C13.266 260.621 12.738 261.391 12.078 262.007C11.462 262.623 10.736 263.085 9.90002 263.393C9.06402 263.701 8.18402 263.855 7.26002 263.855C5.23602 263.855 3.56402 263.239 2.24402 262.007C0.924025 260.775 0.264022 258.905 0.264022 256.397C0.264022 253.845 0.924025 251.953 2.24403 250.721C3.56403 249.533 5.23602 248.939 7.26002 248.939Z" fill="#FCFCFC"/>
<path fill-rule="evenodd" clip-rule="evenodd" d="M109.333 46.125L83.6667 1L58 46.125H109.333ZM81.3333 39V34.25H86V39H81.3333ZM81.3333 29.5H86V20H81.3333V29.5Z" fill="#00FFFF"/>
<path d="M137.618 5.50359V9.70087L122.382 15.2259L122.382 11.3926L125.204 10.4504L125.204 4.71124L122.382 3.76899L122.382 0L137.618 5.50359ZM128.515 9.35824L133.82 7.60223L128.515 5.82481V9.35824Z" fill="#FCFCFC"/>
<path d="M137.618 18.8008V22.8482C137.618 24.6756 137.3 26.0747 136.663 27.0455C136.041 28.0305 135.043 28.5231 133.671 28.5231C133.049 28.5231 132.504 28.3875 132.037 28.1162C131.584 27.845 131.167 27.4666 130.785 26.9812C130.417 27.7807 129.929 28.4017 129.321 28.8443C128.713 29.3012 127.935 29.5296 126.987 29.5296C126.223 29.5296 125.551 29.394 124.971 29.1227C124.405 28.8514 123.924 28.4731 123.528 27.9877C123.146 27.5166 122.856 26.9455 122.658 26.2745C122.474 25.6178 122.382 24.904 122.382 24.1331L122.382 18.8008H137.618ZM128.939 22.4199H125.48V23.4906C125.48 24.2473 125.607 24.8255 125.862 25.2252C126.131 25.6392 126.562 25.8462 127.157 25.8462C127.722 25.8462 128.161 25.6321 128.472 25.2038C128.783 24.7755 128.939 24.1545 128.939 23.3407V22.4199ZM134.541 22.4199H131.676V23.1052C131.676 23.7476 131.811 24.2116 132.08 24.4971C132.348 24.7969 132.709 24.9468 133.162 24.9468C133.615 24.9468 133.954 24.8041 134.18 24.5185C134.421 24.2473 134.541 23.7976 134.541 23.1694V22.4199Z" fill="#FCFCFC"/>
<path d="M125.225 32.4505L126.944 35.2773C126.378 35.6056 125.947 35.9554 125.65 36.3266C125.367 36.6978 125.225 37.1118 125.225 37.5686C125.225 37.9969 125.332 38.3396 125.544 38.5965C125.77 38.8678 126.039 39.0034 126.35 39.0034C126.52 39.0034 126.668 38.9749 126.796 38.9178C126.937 38.8607 127.079 38.7679 127.22 38.6394C127.376 38.5109 127.538 38.3396 127.708 38.1254C127.892 37.9255 128.097 37.6757 128.324 37.3759C128.833 36.7192 129.3 36.1267 129.724 35.5985C130.163 35.0845 130.594 34.642 131.019 34.2708C131.457 33.9139 131.903 33.6426 132.355 33.457C132.808 33.2714 133.31 33.1786 133.862 33.1786C134.485 33.1786 135.043 33.2928 135.538 33.5213C136.048 33.764 136.479 34.0923 136.833 34.5063C137.201 34.9346 137.484 35.4272 137.682 35.9839C137.88 36.5407 137.979 37.1403 137.979 37.7828C137.979 38.7679 137.767 39.6245 137.342 40.3526C136.932 41.0807 136.373 41.7588 135.666 42.387L133.544 39.9671C133.912 39.6387 134.216 39.3032 134.456 38.9606C134.711 38.6322 134.838 38.2682 134.838 37.8684C134.838 37.5115 134.753 37.2331 134.584 37.0333C134.428 36.8334 134.209 36.7335 133.926 36.7335C133.784 36.7335 133.643 36.7692 133.501 36.8405C133.36 36.9262 133.204 37.0547 133.034 37.226C132.879 37.3973 132.688 37.6186 132.462 37.8899C132.249 38.1754 131.995 38.518 131.698 38.9178C131.259 39.5459 130.842 40.0884 130.446 40.5453C130.05 41.0021 129.646 41.3805 129.236 41.6803C128.84 41.9801 128.423 42.2014 127.984 42.3441C127.546 42.4869 127.065 42.5583 126.541 42.5583C125.876 42.5583 125.261 42.4298 124.695 42.1728C124.143 41.9301 123.662 41.5875 123.252 41.1449C122.856 40.7166 122.552 40.1955 122.34 39.5816C122.113 38.9677 122 38.2967 122 37.5686C122 36.3266 122.269 35.2915 122.806 34.4635C123.358 33.6497 124.164 32.9787 125.225 32.4505Z" fill="#FCFCFC"/>
<path d="M130.021 45.8511C131.139 45.8511 132.179 46.051 133.141 46.4507C134.117 46.8648 134.966 47.4358 135.687 48.1639C136.408 48.892 136.974 49.7486 137.385 50.7337C137.795 51.733 138 52.8109 138 53.9673C138 55.1094 137.795 56.173 137.385 57.1581C136.974 58.1432 136.408 58.9998 135.687 59.7279C134.966 60.456 134.117 61.027 133.141 61.441C132.164 61.8551 131.111 62.0621 129.979 62.0621C128.833 62.0621 127.772 61.8551 126.796 61.441C125.82 61.0413 124.978 60.4845 124.271 59.7707C123.563 59.0569 123.012 58.2003 122.615 57.2009C122.219 56.2159 122.021 55.1451 122.021 53.9887C122.021 52.8038 122.219 51.7116 122.615 50.7123C123.026 49.7129 123.584 48.8492 124.292 48.1211C124.999 47.4073 125.841 46.8505 126.817 46.4507C127.807 46.051 128.875 45.8511 130.021 45.8511ZM129.979 49.5987C129.328 49.5987 128.727 49.7058 128.175 49.9199C127.623 50.1483 127.149 50.4553 126.753 50.8408C126.357 51.2262 126.046 51.6831 125.82 52.2113C125.607 52.7538 125.501 53.3391 125.501 53.9673C125.501 54.6097 125.615 55.1951 125.841 55.7233C126.081 56.2515 126.4 56.7084 126.796 57.0939C127.206 57.4793 127.68 57.7791 128.218 57.9933C128.769 58.2074 129.363 58.3145 130 58.3145C130.622 58.3145 131.202 58.2074 131.74 57.9933C132.292 57.7934 132.773 57.5007 133.183 57.1153C133.593 56.7298 133.919 56.2658 134.159 55.7233C134.4 55.1951 134.52 54.6026 134.52 53.9459C134.52 53.3177 134.407 52.7324 134.18 52.1899C133.954 51.6617 133.636 51.2048 133.225 50.8193C132.829 50.4339 132.355 50.1341 131.804 49.9199C131.252 49.7058 130.644 49.5987 129.979 49.5987Z" fill="#FCFCFC"/>
<path d="M137.618 70.1535H125.798L125.798 74.2009H122.382L122.382 66.513H137.618V70.1535Z" fill="#FCFCFC"/>
<path d="M137.618 77.9516V81.5707H127.899C127.05 81.5707 126.428 81.742 126.032 82.0847C125.65 82.4416 125.459 82.9413 125.459 83.5837C125.459 84.3546 125.671 84.89 126.095 85.1898C126.534 85.5039 127.206 85.6609 128.111 85.6609H137.618L137.618 89.28H127.836C125.954 89.28 124.511 88.7804 123.507 87.781C122.502 86.7959 122 85.4111 122 83.6265C122 81.8277 122.509 80.4286 123.528 79.4293C124.561 78.4442 126.039 77.9516 127.963 77.9516H137.618Z" fill="#FCFCFC"/>
<path d="M137.618 92.8561V102.407H134.095L134.095 99.4305H122.382L122.382 95.8114H134.095V92.8561H137.618Z" fill="#FCFCFC"/>
<path d="M122.382 106.174H137.618L137.618 114.997H134.244V109.793H132.016L132.016 114.997H128.748L128.748 109.793H125.798L125.798 114.997H122.382L122.382 106.174Z" fill="#FCFCFC"/>
<path d="M137.618 123.411H125.798L125.798 127.458H122.382L122.382 119.77H137.618V123.411Z" fill="#FCFCFC"/>
<path d="M137.618 128.372V132.141L131.867 134.904L137.618 137.645V141.371L128.578 136.702H122.382L122.382 133.083H128.578L137.618 128.372Z" fill="#FCFCFC"/>
<path d="M122.382 152.593H137.618V156.683L128.154 162.037H137.618V165.57H122.382L122.382 161.544L131.761 156.126H122.382L122.382 152.593Z" fill="#FCFCFC"/>
<path d="M130.021 170.041C131.139 170.041 132.179 170.241 133.141 170.64C134.117 171.054 134.966 171.625 135.687 172.353C136.408 173.082 136.974 173.938 137.385 174.923C137.795 175.923 138 177 138 178.157C138 179.299 137.795 180.363 137.385 181.348C136.974 182.333 136.408 183.189 135.687 183.917C134.966 184.646 134.117 185.217 133.141 185.631C132.164 186.045 131.111 186.252 129.979 186.252C128.833 186.252 127.772 186.045 126.796 185.631C125.82 185.231 124.978 184.674 124.271 183.96C123.563 183.246 123.011 182.39 122.615 181.39C122.219 180.405 122.021 179.335 122.021 178.178C122.021 176.993 122.219 175.901 122.615 174.902C123.026 173.902 123.584 173.039 124.292 172.311C124.999 171.597 125.841 171.04 126.817 170.64C127.807 170.241 128.875 170.041 130.021 170.041ZM129.979 173.788C129.328 173.788 128.727 173.895 128.175 174.109C127.623 174.338 127.149 174.645 126.753 175.03C126.357 175.416 126.046 175.873 125.82 176.401C125.607 176.943 125.501 177.529 125.501 178.157C125.501 178.799 125.615 179.385 125.841 179.913C126.081 180.441 126.4 180.898 126.796 181.283C127.206 181.669 127.68 181.969 128.218 182.183C128.769 182.397 129.363 182.504 130 182.504C130.622 182.504 131.202 182.397 131.74 182.183C132.292 181.983 132.773 181.69 133.183 181.305C133.593 180.919 133.919 180.455 134.159 179.913C134.4 179.385 134.52 178.792 134.52 178.135C134.52 177.507 134.407 176.922 134.18 176.379C133.954 175.851 133.636 175.394 133.225 175.009C132.829 174.623 132.355 174.324 131.804 174.109C131.252 173.895 130.644 173.788 129.979 173.788Z" fill="#FCFCFC"/>
<path d="M137.618 202.382L137.618 206.579L122.382 212.104L122.382 208.271L125.204 207.329L125.204 201.59L122.382 200.647L122.382 196.878L137.618 202.382ZM128.515 206.237L133.82 204.481L128.515 202.703V206.237Z" fill="#FCFCFC"/>
<path d="M125.225 214.373L126.944 217.2C126.378 217.528 125.947 217.878 125.65 218.249C125.367 218.62 125.225 219.034 125.225 219.491C125.225 219.919 125.332 220.262 125.544 220.519C125.77 220.79 126.039 220.926 126.35 220.926C126.52 220.926 126.668 220.897 126.796 220.84C126.937 220.783 127.079 220.69 127.22 220.562C127.376 220.433 127.538 220.262 127.708 220.048C127.892 219.848 128.097 219.598 128.324 219.298C128.833 218.642 129.3 218.049 129.724 217.521C130.163 217.007 130.594 216.564 131.019 216.193C131.457 215.836 131.903 215.565 132.355 215.379C132.808 215.194 133.31 215.101 133.862 215.101C134.485 215.101 135.043 215.215 135.538 215.444C136.048 215.686 136.479 216.015 136.833 216.429C137.201 216.857 137.484 217.349 137.682 217.906C137.88 218.463 137.979 219.063 137.979 219.705C137.979 220.69 137.767 221.547 137.342 222.275C136.932 223.003 136.373 223.681 135.666 224.309L133.544 221.889C133.912 221.561 134.216 221.226 134.456 220.883C134.711 220.555 134.838 220.191 134.838 219.791C134.838 219.434 134.753 219.155 134.584 218.956C134.428 218.756 134.209 218.656 133.926 218.656C133.784 218.656 133.643 218.691 133.501 218.763C133.36 218.849 133.204 218.977 133.034 219.148C132.879 219.32 132.688 219.541 132.462 219.812C132.249 220.098 131.995 220.44 131.698 220.84C131.259 221.468 130.842 222.011 130.446 222.468C130.05 222.924 129.646 223.303 129.236 223.603C128.84 223.902 128.423 224.124 127.984 224.266C127.546 224.409 127.065 224.481 126.541 224.481C125.876 224.481 125.261 224.352 124.695 224.095C124.143 223.852 123.662 223.51 123.252 223.067C122.856 222.639 122.552 222.118 122.34 221.504C122.113 220.89 122 220.219 122 219.491C122 218.249 122.269 217.214 122.806 216.386C123.358 215.572 124.164 214.901 125.225 214.373Z" fill="#FCFCFC"/>
<path d="M137.618 232.545V236.742L122.382 242.267L122.382 238.434L125.204 237.492L125.204 231.753L122.382 230.81L122.382 227.041L137.618 232.545ZM128.515 236.4L133.82 234.644L128.515 232.866V236.4Z" fill="#FCFCFC"/>
<path d="M137.618 245.842V250.489C137.618 252.402 137.179 253.837 136.302 254.793C135.439 255.75 134.237 256.228 132.695 256.228C131.988 256.228 131.337 256.1 130.743 255.843C130.149 255.586 129.632 255.215 129.194 254.729C128.755 254.258 128.416 253.673 128.175 252.973C127.935 252.288 127.814 251.503 127.814 250.618V249.483H122.382L122.382 245.842H137.618ZM134.265 249.483H131.146V250.532C131.146 251.86 131.662 252.524 132.695 252.524C133.742 252.524 134.265 251.817 134.265 250.403V249.483Z" fill="#FCFCFC"/>
<path d="M127.241 260.167H138L138 263.7H127.241V260.167ZM124.101 259.824C124.638 259.824 125.105 260.01 125.501 260.381C125.897 260.752 126.095 261.266 126.095 261.923C126.095 262.579 125.897 263.086 125.501 263.443C125.105 263.814 124.638 264 124.101 264C123.521 264 123.04 263.814 122.658 263.443C122.276 263.072 122.085 262.565 122.085 261.923C122.085 261.266 122.276 260.752 122.658 260.381C123.04 260.01 123.521 259.824 124.101 259.824Z" fill="#FCFCFC"/>
<rect width="49" height="47" fill="white" fill-opacity="0.1"/>
<rect x="62" y="178" width="49" height="86" fill="white" fill-opacity="0.1"/>
</svg>
